<?xml version="1.0" standalone="no"?><!DOCTYPE svg PUBLIC "-//W3C//DTD SVG 1.1//EN" "http://www.w3.org/Graphics/SVG/1.1/DTD/svg11.dtd"><svg class="icon" width="200px" height="200.00px" viewBox="0 0 1024 1024" version="1.1" xmlns="http://www.w3.org/2000/svg"><path d="M654.96 616.496v-50.616a180.512 180.512 0 0 0 59.336-105.92c3.92 3.136 8.384 5.072 13.208 5.072 14.888 0 26.952-17.04 26.952-38.056 0-5.744-0.968-11.136-2.584-16.016v-65.152c0-85.504-49.712-159.384-121.808-194.344a58.32 58.32 0 0 0 3.808-20.448c0-41.24-43.824-74.664-97.88-74.664s-97.88 33.432-97.88 74.664c0 7.096 1.384 13.936 3.808 20.448-72.088 34.96-121.808 108.84-121.808 194.344v65.152a50.912 50.912 0 0 0-2.584 16.016c0 21.016 12.064 38.056 26.952 38.056 4.824 0 9.288-1.936 13.208-5.072a180.552 180.552 0 0 0 59.336 105.92v15.856H333.272a8 8 0 0 0-8-8h-21.128a8 8 0 0 0 0 16h21.128v21.504h-21.128a8 8 0 0 0 0 16h21.128v24h-21.128a8 8 0 0 0 0 16h21.128v4.08c-43.616 42.264-70.76 101.416-70.76 166.936v177.384h562.984v-177.384c-0.008-104.016-68.328-192.064-162.536-221.76z" fill="#E6E7E8" /><path d="M377.04 541.736H285.272v89.584a232.24 232.24 0 0 1 91.768-54.656v-34.928z" fill="#FA759E" /><path d="M496 89.936c33.728 0 65.64 7.744 94.072 21.536a58.32 58.32 0 0 0 3.808-20.448c0-41.24-43.824-74.664-97.88-74.664s-97.88 33.432-97.88 74.664c0 7.096 1.384 13.936 3.808 20.448A214.944 214.944 0 0 1 496 89.936z" fill="#6DC9F7" /><path d="M687.504 348.928c10.816 0 20.08 9.056 24.376 22.04v-65.152c0-119.224-96.648-215.88-215.88-215.88-119.224 0-215.88 96.648-215.88 215.88v65.152c4.288-12.984 13.552-22.04 24.376-22.04 5 0 9.624 2.048 13.64 5.4a216.624 216.624 0 0 1 47.472-103.648 98.504 98.504 0 0 1 75.56-35.312h109.672a98.48 98.48 0 0 1 75.56 35.312 216.544 216.544 0 0 1 47.472 103.648c4.008-3.352 8.632-5.4 13.632-5.4z" fill="#6DC9F7" /><path d="M687.504 348.928c-5 0-9.624 2.048-13.632 5.4 1.928 11.632 3 23.456 3 35.376a182.16 182.16 0 0 1-2.568 30.256c3.92 3.136 8.384 5.072 13.208 5.072 14.888 0 26.952-17.04 26.952-38.056s-12.072-38.048-26.96-38.048zM315.136 389.704c0-11.928 1.072-23.744 3-35.376-4.016-3.352-8.64-5.4-13.64-5.4-14.888 0-26.952 17.04-26.952 38.056s12.064 38.056 26.952 38.056c4.824 0 9.288-1.936 13.208-5.072a181.48 181.48 0 0 1-2.568-30.264zM614.96 576.496v3.752c0 9.632-7.696 19.336-17.256 21.272a509.544 509.544 0 0 1-203.416 0c-9.56-1.944-17.256-11.64-17.256-21.272v-3.752c-94.208 29.696-162.528 117.744-162.528 221.76v177.384h562.984V798.256c0-104.024-68.32-192.064-162.528-221.76z" fill="#FFFFFF" /><path d="M608.96 594.784c-3.024 3.336-6.92 5.856-11.256 6.736a509.544 509.544 0 0 1-203.416 0c-4.328-0.88-8.232-3.4-11.256-6.736-97.288 27.792-168.528 117.304-168.528 223.512v177.384h562.984v-177.384c0-106.208-71.24-195.72-168.528-223.512z" fill="#FFD7E5" /><path d="M409.48 604.216v371.416h173.04V604.216a509.216 509.216 0 0 1-173.04 0z" fill="#0089EF" /><path d="M597.704 601.52a509.352 509.352 0 0 1-111.496 10.008v74.04h115V600.432c-1.128 0.48-2.296 0.848-3.504 1.088z" fill="#FA759E" /><path d="M496 570.568a180.144 180.144 0 0 1-118.96-44.688v54.368c0 9.632 7.696 19.336 17.256 21.272a509.544 509.544 0 0 0 203.416 0c9.56-1.944 17.256-11.64 17.256-21.272v-54.368A180.136 180.136 0 0 1 496 570.568z" fill="#FA759E" /><path d="M626.392 250.672a98.504 98.504 0 0 0-75.56-35.312H441.16a98.48 98.48 0 0 0-75.56 35.312 216.72 216.72 0 0 0-50.472 139.032c0 99.888 80.976 180.864 180.864 180.864s180.864-80.976 180.864-180.864a216.664 216.664 0 0 0-50.464-139.032z" fill="#FFFFFF" /><path d="M599.152 400.832c-8.872 0-16.064 4.536-16.064 10.128s7.192 10.128 16.064 10.128 16.064-4.536 16.064-10.128-7.192-10.128-16.064-10.128zM392.848 398.576c-8.872 0-16.064 4.536-16.064 10.128 0 5.592 7.192 10.128 16.064 10.128s16.064-4.536 16.064-10.128c0-5.592-7.192-10.128-16.064-10.128z" fill="#FFD7E5" /><path d="M496 500.328c-27.632 0-41.696-19.048-42.28-19.864a8.16 8.16 0 0 1 13.208-9.6c0.488 0.648 10.12 13.128 29.064 13.128 18.896 0 29.048-13.104 29.144-13.24a8.16 8.16 0 1 1 13.024 9.872c-0.608 0.8-15.232 19.704-42.16 19.704z" fill="#FA759E" /><path d="M728.832 643.624c-0.088-0.176-0.096-0.368-0.2-0.544a7.832 7.832 0 0 0-1.792-1.904 241.208 241.208 0 0 0-103.872-70.216v-41.56a188.992 188.992 0 0 0 57.08-97.44c2.4 0.68 4.896 1.056 7.472 1.056 19.6 0 34.952-20.224 34.952-46.048 0-6.28-0.92-12.216-2.576-17.624v-63.536c0-86.048-48.824-160.864-120.2-198.328a65.008 65.008 0 0 0 2.2-16.464c0-45.584-47.496-82.664-105.88-82.664S390.12 45.448 390.12 91.024c0 5.48 0.76 10.992 2.2 16.464-71.376 37.464-120.192 112.28-120.192 198.328v63.536a60.216 60.216 0 0 0-2.576 17.624c0 25.824 15.352 46.048 34.952 46.048 2.576 0 5.072-0.376 7.472-1.056a188.944 188.944 0 0 0 57.08 97.44v4.328H264.144a8 8 0 0 0 0 16h13.128v21.504h-13.128a8 8 0 0 0 0 16h13.128v24h-13.128a8 8 0 0 0 0 16h13.128v0.992a242.88 242.88 0 0 0-12.088 12.928 7.736 7.736 0 0 0-1.816 1.928c-0.104 0.168-0.112 0.368-0.2 0.544-35.264 41.848-56.664 95.744-56.664 154.632v177.376a8 8 0 0 0 8 8h562.992a8 8 0 0 0 8-8V798.256c0-58.888-21.4-112.784-56.664-154.632z m-234.624 33.944v-16h99v16H494.208zM496 619.832c32.472 0 64.944-3.208 97.208-9.384v35.12H494.208v-25.784c0.6 0 1.192 0.048 1.792 0.048z m110.96-39.584c0 5.984-5.064 12.264-10.848 13.432a498.984 498.984 0 0 1-200.224 0c-5.784-1.168-10.848-7.448-10.848-13.432V542.4c31.176 22.72 69.52 36.168 110.96 36.168s79.784-13.448 110.96-36.168v37.848z m-313.688 33.264v-63.776h16v51.528c-5.512 3.864-10.848 7.952-16 12.248z m76.872-25.96c2.904 10.632 11.72 19.608 22.552 21.808 2.92 0.592 5.856 1.016 8.784 1.56v356.712H334.32v-219.2c0-40.944-19.24-78.544-51.88-102.432a225.008 225.008 0 0 1 87.704-58.448z m317.368-170.52c-1.56 0-3.056-0.432-4.512-1.048 1.2-8.592 1.872-17.36 1.872-26.28 0-10.584-0.952-21.08-2.432-31.472 1.624-0.768 3.304-1.304 5.072-1.304 10.272 0 18.952 13.76 18.952 30.056-0.008 16.288-8.68 30.048-18.952 30.048zM407.04 100.32a47.808 47.808 0 0 1-0.92-9.296c0-36.76 40.32-66.664 89.88-66.664 49.56 0 89.88 29.904 89.88 66.664 0 3.08-0.312 6.184-0.92 9.296-28.088-12.2-57.968-18.384-88.96-18.384s-60.864 6.184-88.96 18.384z m16.584 10.632c0.4-0.152 0.792-0.312 1.192-0.456 2.624-0.96 5.28-1.84 7.952-2.696 0.744-0.24 1.48-0.488 2.232-0.712 2.552-0.784 5.136-1.512 7.728-2.2l2.656-0.688c2.504-0.632 5.024-1.216 7.56-1.752 1.056-0.224 2.12-0.424 3.184-0.632 2.392-0.464 4.8-0.912 7.224-1.296 1.352-0.216 2.704-0.384 4.064-0.568 2.176-0.304 4.36-0.6 6.56-0.832 1.888-0.2 3.792-0.328 5.696-0.472 1.72-0.136 3.44-0.304 5.168-0.392 3.704-0.192 7.424-0.312 11.168-0.312s7.464 0.112 11.168 0.312c1.736 0.096 3.448 0.256 5.168 0.392 1.904 0.144 3.8 0.28 5.696 0.472 2.2 0.232 4.376 0.536 6.56 0.832 1.352 0.184 2.712 0.36 4.064 0.568 2.424 0.384 4.824 0.824 7.224 1.296 1.064 0.208 2.128 0.408 3.184 0.632a199.28 199.28 0 0 1 10.216 2.44c2.592 0.688 5.176 1.416 7.728 2.2l2.232 0.712c2.672 0.856 5.328 1.736 7.952 2.696 0.4 0.144 0.792 0.312 1.192 0.456 79.048 29.456 135.504 105.68 135.504 194.856v40.328a28.752 28.752 0 0 0-16.368-5.216c-2.752 0-5.416 0.416-7.968 1.184-7.672-35.288-23.584-68.568-47.008-96.568a106.232 106.232 0 0 0-81.696-38.176H441.168c-31.632 0-61.4 13.92-81.696 38.176-23.416 28-39.336 61.272-47.008 96.568a27.56 27.56 0 0 0-7.968-1.184 28.72 28.72 0 0 0-16.368 5.216v-40.328c-0.008-89.176 56.456-165.4 135.496-194.856z m-119.128 306.08c-10.272 0-18.952-13.76-18.952-30.048 0-16.296 8.672-30.056 18.952-30.056 1.76 0 3.448 0.536 5.072 1.304a223.128 223.128 0 0 0-2.432 31.472c0 8.92 0.664 17.688 1.872 26.28a11.584 11.584 0 0 1-4.512 1.048z m18.64-27.328a209.08 209.08 0 0 1 48.608-133.896 90.256 90.256 0 0 1 69.424-32.448h109.672c26.872 0 52.176 11.824 69.424 32.448a209.08 209.08 0 0 1 48.608 133.896c0 95.32-77.544 172.864-172.864 172.864s-172.872-77.544-172.872-172.864z m45.904 181.264a239.76 239.76 0 0 0-43.768 20v-41.232h43.768v21.232zM222.512 798.256c0-53.016 18.608-101.688 49.464-140.12 29.152 20.84 46.344 54.08 46.344 90.296v219.2H222.512V798.256z m194.968 169.376V613.776a516.08 516.08 0 0 0 60.728 5.608v87.312a8 8 0 0 0 16 0v-13.128h21.504v13.128a8 8 0 0 0 16 0v-13.128h24v13.128a8 8 0 0 0 16 0v-13.128h2.808v274.064h-157.04z m352.016 0H673.688v-28.968a8 8 0 0 0-16 0v28.968h-67.168V693.568h2.688v13.128a8 8 0 0 0 16 0V605.128a31.2 31.2 0 0 0 12.648-17.576 225.072 225.072 0 0 1 87.704 58.448c-32.64 23.888-51.88 61.488-51.88 102.432v63.568a8 8 0 0 0 16 0v-63.568c0-36.216 17.192-69.464 46.344-90.296 30.856 38.44 49.464 87.104 49.464 140.12v169.376z" fill="#3A2C60" /><path d="M665.688 840a8 8 0 0 0-8 8v57.336a8 8 0 0 0 16 0V848a8 8 0 0 0-8-8zM416.208 346.304a18.08 18.08 0 1 0 0 36.168 18.08 18.08 0 0 0 0-36.168zM575.792 346.304a18.08 18.08 0 1 0 0 36.168 18.08 18.08 0 0 0 0-36.168zM496 452.888a28.6 28.6 0 0 0 28.568-28.568v-12.056a8 8 0 0 0-16 0v12.056c0 6.928-5.64 12.568-12.568 12.568s-12.568-5.64-12.568-12.568v-12.056a8 8 0 0 0-16 0v12.056A28.6 28.6 0 0 0 496 452.888zM562.032 329.36l35.416 6.168a8 8 0 0 0 2.752-15.76l-35.416-6.168a8 8 0 1 0-2.752 15.76zM393.168 335.648c0.456 0 0.92-0.04 1.384-0.12l35.416-6.168a8 8 0 1 0-2.752-15.76l-35.416 6.168a8 8 0 0 0 1.368 15.88z" fill="#3A2C60" /></svg>